# xmcd
#
# Track frame offsets:
#	150
#	30664
#	46328
#	66762
#	78007
#	113511
#	125626
#	140883
#
# Disc length: 2495 seconds
#
# Revision: 0
# Processed by: cddbd v1.5.2PL0 Copyright (c) Steve Scherf et al.
# Submitted via: dBpowerAMP V4.0
#
DISCID=6709bd08
DTITLE=Deerhunter - Live from Soho
DYEAR=2010
DGENRE=Acid Jazz
TTITLE0=Desire Lines
TTITLE1=Hazel St.
TTITLE2=Don't Cry
TTITLE3=Revival
TTITLE4=Helicopter
TTITLE5=Fountain Stars
TTITLE6=Rainwater Cassette Exchange 
TTITLE7=He Would Have Laughed 
EXTD=
EXTT0=
EXTT1=
EXTT2=
EXTT3=
EXTT4=
EXTT5=
EXTT6=
EXTT7=
PLAYORDER=
